<svg width="64" height="64" viewBox="0 0 64 64" fill="none" xmlns="http://www.w3.org/2000/svg">
<path d="M32 3C16.98 3 4 15.98 4 32C4 48.02 16.98 61 32 61C47.02 61 60 48.02 60 32C60 15.98 47.02 3 32 3ZM32 15C35.866 15 39 18.134 39 22C39 25.866 35.866 29 32 29C28.134 29 25 25.866 25 22C25 18.134 28.134 15 32 15ZM32 49C25.044 49 19.344 43.682 18.062 36.656L22.188 37.938C23.084 41.528 27.172 44 32 44C36.828 44 40.916 41.528 41.812 37.938L45.938 36.656C44.656 43.682 38.956 49 32 49Z" fill="#2E8555"/>
</svg>
